# xmcd CD database file
#
# Track frame offsets:
#	150
#	13927
#	32345
#	52302
#	74695
#	96204
#	116795
#	132005
#	151417
#	167345
#	179110
#	190167
#	213275
#	224215
#	240107
#	269902
#	283102
#	298515
#
# Disc length: 4243 seconds
#
# Revision: 0
# Processed by: cddbd v1.5.1PL0 Copyright (c) Steve Scherf et al.
# Submitted via: CDex 1.51
#
DISCID=1f109112
DTITLE=Frl. Mayer`s Hinterhausjazzer - Die Achte
DYEAR=1996
DGENRE=Jazz
TTITLE0=Fleet Street Rag
TTITLE1=There'll Be Some Changes Made
TTITLE2=It's A Sin To Tell A Lie
TTITLE3=High Society
TTITLE4=Minnie The Moocher
TTITLE5=While We Dance At Mardi Gras
TTITLE6=Some Of These Days
TTITLE7=If I Had A Talking Picture Of You
TTITLE8=Sweet Gerorgia Brown
TTITLE9=King Kong
TTITLE10=Honey Love
TTITLE11=Mr. Cleanhead Blues
TTITLE12=Potato Head Blues
TTITLE13=Bad, Bad Leroy Brown
TTITLE14=Breeze
TTITLE15=Take Me Back To New Orleans
TTITLE16=Bye Bye Blackbird
TTITLE17=Just A Gigolo
EXTD=YEAR: 1996
EXTT0=
EXTT1=
EXTT2=
EXTT3=
EXTT4=
EXTT5=
EXTT6=
EXTT7=
EXTT8=
EXTT9=
EXTT10=
EXTT11=
EXTT12=
EXTT13=
EXTT14=
EXTT15=
EXTT16=
EXTT17=
PLAYORDER=
